<?xml version="1.0" encoding="UTF-8"?>
<svg xmlns="http://www.w3.org/2000/svg" xmlns:xlink="http://www.w3.org/1999/xlink" width="3003" height="3003" viewBox="0 0 3003 3003">
<path fill-rule="nonzero" fill="rgb(99.609375%, 99.609375%, 99.609375%)" fill-opacity="1" d="M 1.042969 0 C 0.765625 0 0.5 0.109375 0.304688 0.308594 C 0.109375 0.5 0 0.769531 0 1.039062 L 0 3001.042969 C 0 3001.617188 0.46875 3002.085938 1.042969 3002.085938 L 3001.039062 3002.085938 C 3001.320312 3002.085938 3001.589844 3001.976562 3001.78125 3001.78125 C 3001.980469 3001.585938 3002.089844 3001.320312 3002.089844 3001.042969 L 3002.089844 1.039062 C 3002.089844 0.46875 3001.621094 0 3001.039062 0 Z M 1.042969 0 "/>
<path fill-rule="nonzero" fill="rgb(0%, 0%, 0%)" fill-opacity="1" d="M 875.03125 718.929688 L 933.777344 718.929688 L 933.777344 435.273438 L 875.03125 435.273438 Z M 875.03125 718.929688 "/>
<path fill-rule="nonzero" fill="rgb(0%, 0%, 0%)" fill-opacity="1" d="M 875.03125 718.929688 L 933.777344 718.929688 L 933.777344 435.269531 L 875.03125 435.269531 L 875.03125 718.929688 M 875.03125 718.929688 L 875.03125 435.269531 L 933.777344 435.269531 L 933.777344 718.929688 Z M 875.03125 718.929688 "/>
<path fill-rule="nonzero" fill="rgb(0%, 0%, 0%)" fill-opacity="1" d="M 1115.53125 718.929688 L 1174.273438 718.929688 L 1174.273438 435.273438 L 1115.53125 435.273438 Z M 1115.53125 718.929688 "/>
<path fill-rule="nonzero" fill="rgb(0%, 0%, 0%)" fill-opacity="1" d="M 1115.53125 718.929688 L 1174.269531 718.929688 L 1174.269531 435.269531 L 1115.53125 435.269531 L 1115.53125 718.929688 M 1115.53125 718.929688 L 1115.53125 435.269531 L 1174.269531 435.269531 L 1174.269531 718.929688 Z M 1115.53125 718.929688 "/>
<path fill-rule="nonzero" fill="rgb(0%, 0%, 0%)" fill-opacity="1" d="M 1356.019531 718.929688 L 1416.597656 718.929688 L 1416.597656 435.273438 L 1356.019531 435.273438 Z M 1356.019531 718.929688 "/>
<path fill-rule="nonzero" fill="rgb(0%, 0%, 0%)" fill-opacity="1" d="M 1356.019531 718.929688 L 1416.601562 718.929688 L 1416.601562 435.269531 L 1356.019531 435.269531 L 1356.019531 718.929688 M 1356.019531 718.929688 L 1356.019531 435.269531 L 1416.601562 435.269531 L 1416.601562 718.929688 Z M 1356.019531 718.929688 "/>
<path fill-rule="nonzero" fill="rgb(0%, 0%, 0%)" fill-opacity="1" d="M 1598.339844 718.929688 L 1657.085938 718.929688 L 1657.085938 435.273438 L 1598.339844 435.273438 Z M 1598.339844 718.929688 "/>
<path fill-rule="nonzero" fill="rgb(0%, 0%, 0%)" fill-opacity="1" d="M 1598.339844 718.929688 L 1657.089844 718.929688 L 1657.089844 435.269531 L 1598.339844 435.269531 L 1598.339844 718.929688 M 1598.339844 718.929688 L 1598.339844 435.269531 L 1657.089844 435.269531 L 1657.089844 718.929688 Z M 1598.339844 718.929688 "/>
<path fill-rule="nonzero" fill="rgb(0%, 0%, 0%)" fill-opacity="1" d="M 1838.839844 718.929688 L 1899.421875 718.929688 L 1899.421875 435.273438 L 1838.839844 435.273438 Z M 1838.839844 718.929688 "/>
<path fill-rule="nonzero" fill="rgb(0%, 0%, 0%)" fill-opacity="1" d="M 1838.839844 718.929688 L 1899.421875 718.929688 L 1899.421875 435.269531 L 1838.839844 435.269531 L 1838.839844 718.929688 M 1838.839844 718.929688 L 1838.839844 435.269531 L 1899.421875 435.269531 L 1899.421875 718.929688 Z M 1838.839844 718.929688 "/>
<path fill-rule="nonzero" fill="rgb(0%, 0%, 0%)" fill-opacity="1" d="M 2081.148438 718.929688 L 2139.894531 718.929688 L 2139.894531 435.273438 L 2081.148438 435.273438 Z M 2081.148438 718.929688 "/>
<path fill-rule="nonzero" fill="rgb(0%, 0%, 0%)" fill-opacity="1" d="M 2081.148438 718.929688 L 2139.898438 718.929688 L 2139.898438 435.269531 L 2081.148438 435.269531 L 2081.148438 718.929688 M 2081.148438 718.929688 L 2081.148438 435.269531 L 2139.898438 435.269531 L 2139.898438 718.929688 Z M 2081.148438 718.929688 "/>
<path fill-rule="nonzero" fill="rgb(0%, 0%, 0%)" fill-opacity="1" d="M 1356.019531 2270.179688 L 1416.589844 2270.179688 L 1416.589844 2553.300781 L 1356 2553.308594 Z M 1356.019531 2270.179688 "/>
<path fill-rule="nonzero" fill="rgb(0%, 0%, 0%)" fill-opacity="1" d="M 1356.019531 2270.179688 L 1416.589844 2270.179688 L 1416.589844 2553.300781 L 1356 2553.308594 L 1356.019531 2270.179688 M 1356.019531 2270.179688 L 1356 2553.308594 L 1416.589844 2553.300781 L 1416.589844 2270.179688 Z M 1356.019531 2270.179688 "/>
<path fill-rule="nonzero" fill="rgb(0%, 0%, 0%)" fill-opacity="1" d="M 1598.339844 2270.179688 L 1657.078125 2270.179688 L 1657.078125 2553.300781 L 1598.339844 2553.308594 Z M 1598.339844 2270.179688 "/>
<path fill-rule="nonzero" fill="rgb(0%, 0%, 0%)" fill-opacity="1" d="M 1598.339844 2270.179688 L 1657.078125 2270.179688 L 1657.078125 2553.300781 L 1598.339844 2553.308594 L 1598.339844 2270.179688 M 1598.339844 2270.179688 L 1598.339844 2553.308594 L 1657.078125 2553.300781 L 1657.078125 2270.179688 Z M 1598.339844 2270.179688 "/>
<path fill-rule="nonzero" fill="rgb(0%, 0%, 0%)" fill-opacity="1" d="M 1838.839844 2270.179688 L 1899.410156 2270.179688 L 1899.398438 2553.300781 L 1838.839844 2553.308594 Z M 1838.839844 2270.179688 "/>
<path fill-rule="nonzero" fill="rgb(0%, 0%, 0%)" fill-opacity="1" d="M 1838.839844 2270.179688 L 1899.410156 2270.179688 L 1899.398438 2553.300781 L 1838.839844 2553.308594 L 1838.839844 2270.179688 M 1838.839844 2270.179688 L 1838.839844 2553.308594 L 1899.398438 2553.300781 L 1899.410156 2270.179688 Z M 1838.839844 2270.179688 "/>
<path fill-rule="nonzero" fill="rgb(0%, 0%, 0%)" fill-opacity="1" d="M 2081.148438 2270.179688 L 2139.910156 2270.179688 L 2139.910156 2553.300781 L 2081.148438 2553.308594 Z M 2081.148438 2270.179688 "/>
<path fill-rule="nonzero" fill="rgb(0%, 0%, 0%)" fill-opacity="1" d="M 2081.148438 2270.179688 L 2139.910156 2270.179688 L 2139.910156 2553.300781 L 2081.148438 2553.308594 L 2081.148438 2270.179688 M 2081.148438 2270.179688 L 2081.148438 2553.308594 L 2139.910156 2553.300781 L 2139.910156 2270.179688 Z M 2081.148438 2270.179688 "/>
<path fill-rule="nonzero" fill="rgb(0%, 0%, 0%)" fill-opacity="1" d="M 2283.089844 1644.171875 L 2566.316406 1644.171875 L 2566.316406 1585.425781 L 2283.089844 1585.425781 Z M 2283.089844 1644.171875 "/>
<path fill-rule="nonzero" fill="rgb(0%, 0%, 0%)" fill-opacity="1" d="M 2283.089844 1644.171875 L 2566.308594 1644.171875 L 2566.308594 1585.421875 L 2283.089844 1585.421875 L 2283.089844 1644.171875 M 2283.089844 1644.171875 L 2283.089844 1585.421875 L 2566.308594 1585.421875 L 2566.308594 1644.171875 Z M 2283.089844 1644.171875 "/>
<path fill-rule="nonzero" fill="rgb(0%, 0%, 0%)" fill-opacity="1" d="M 2283.089844 2126.988281 L 2566.308594 2126.984375 L 2566.308594 2066.402344 L 2283.089844 2066.402344 Z M 2283.089844 2126.988281 "/>
<path fill-rule="nonzero" fill="rgb(0%, 0%, 0%)" fill-opacity="1" d="M 2283.089844 2126.988281 L 2566.308594 2126.984375 L 2566.308594 2066.402344 L 2283.089844 2066.402344 L 2283.089844 2126.988281 M 2283.089844 2126.988281 L 2283.089844 2066.402344 L 2566.308594 2066.402344 L 2566.308594 2126.984375 Z M 2283.089844 2126.988281 "/>
<path fill-rule="nonzero" fill="rgb(0%, 0%, 0%)" fill-opacity="1" d="M 448.292969 920.859375 L 731.839844 920.859375 L 731.839844 860.273438 L 448.292969 860.273438 Z M 448.292969 920.859375 "/>
<path fill-rule="nonzero" fill="rgb(0%, 0%, 0%)" fill-opacity="1" d="M 448.292969 920.859375 L 731.839844 920.859375 L 731.839844 860.269531 L 448.292969 860.269531 L 448.292969 920.859375 M 448.292969 920.859375 L 448.292969 860.269531 L 731.839844 860.269531 L 731.839844 920.859375 Z M 448.292969 920.859375 "/>
<path fill-rule="nonzero" fill="rgb(0%, 0%, 0%)" fill-opacity="1" d="M 448.292969 1102.601562 L 731.839844 1102.609375 L 731.839844 1161.339844 L 448.292969 1161.351562 Z M 448.292969 1102.601562 "/>
<path fill-rule="nonzero" fill="rgb(0%, 0%, 0%)" fill-opacity="1" d="M 448.292969 1102.601562 L 731.839844 1102.609375 L 731.839844 1161.339844 L 448.292969 1161.351562 L 448.292969 1102.601562 M 448.292969 1102.601562 L 448.292969 1161.351562 L 731.839844 1161.339844 L 731.839844 1102.609375 Z M 448.292969 1102.601562 "/>
<path fill-rule="nonzero" fill="rgb(0%, 0%, 0%)" fill-opacity="1" d="M 448.292969 2126.988281 L 731.839844 2126.984375 L 731.839844 2066.402344 L 448.292969 2066.402344 Z M 448.292969 2126.988281 "/>
<path fill-rule="nonzero" fill="rgb(0%, 0%, 0%)" fill-opacity="1" d="M 448.292969 2126.988281 L 731.839844 2126.984375 L 731.839844 2066.402344 L 448.292969 2066.402344 L 448.292969 2126.988281 M 448.292969 2126.988281 L 448.292969 2066.402344 L 731.839844 2066.402344 L 731.839844 2126.984375 Z M 448.292969 2126.988281 "/>
<path fill-rule="nonzero" fill="rgb(0%, 0%, 0%)" fill-opacity="1" d="M 875.03125 2270.179688 L 933.773438 2270.179688 L 933.773438 2553.300781 L 875.03125 2553.308594 Z M 875.03125 2270.179688 "/>
<path fill-rule="nonzero" fill="rgb(0%, 0%, 0%)" fill-opacity="1" d="M 875.03125 2270.179688 L 933.773438 2270.179688 L 933.773438 2553.300781 L 875.03125 2553.308594 L 875.03125 2270.179688 M 875.03125 2270.179688 L 875.03125 2553.308594 L 933.773438 2553.300781 L 933.773438 2270.179688 Z M 875.03125 2270.179688 "/>
<path fill-rule="nonzero" fill="rgb(0%, 0%, 0%)" fill-opacity="1" d="M 1115.53125 2270.179688 L 1174.269531 2270.179688 L 1174.269531 2553.300781 L 1115.53125 2553.308594 Z M 1115.53125 2270.179688 "/>
<path fill-rule="nonzero" fill="rgb(0%, 0%, 0%)" fill-opacity="1" d="M 1115.53125 2270.179688 L 1174.269531 2270.179688 L 1174.269531 2553.300781 L 1115.53125 2553.308594 L 1115.53125 2270.179688 M 1115.53125 2270.179688 L 1115.53125 2553.308594 L 1174.269531 2553.300781 L 1174.269531 2270.179688 Z M 1115.53125 2270.179688 "/>
<path fill-rule="nonzero" fill="rgb(0%, 0%, 0%)" fill-opacity="1" d="M 2283.089844 920.859375 L 2566.316406 920.859375 L 2566.316406 860.273438 L 2283.089844 860.273438 Z M 2283.089844 920.859375 "/>
<path fill-rule="nonzero" fill="rgb(0%, 0%, 0%)" fill-opacity="1" d="M 2283.089844 920.859375 L 2566.308594 920.859375 L 2566.308594 860.269531 L 2283.089844 860.269531 L 2283.089844 920.859375 M 2283.089844 920.859375 L 2283.089844 860.269531 L 2566.308594 860.269531 L 2566.308594 920.859375 Z M 2283.089844 920.859375 "/>
<path fill-rule="nonzero" fill="rgb(0%, 0%, 0%)" fill-opacity="1" d="M 2283.089844 1102.601562 L 2566.308594 1102.601562 L 2566.308594 1161.339844 L 2283.089844 1161.351562 Z M 2283.089844 1102.601562 "/>
<path fill-rule="nonzero" fill="rgb(0%, 0%, 0%)" fill-opacity="1" d="M 2283.089844 1102.601562 L 2566.308594 1102.601562 L 2566.308594 1161.339844 L 2283.089844 1161.351562 L 2283.089844 1102.601562 M 2283.089844 1102.601562 L 2283.089844 1161.351562 L 2566.308594 1161.339844 L 2566.308594 1102.601562 Z M 2283.089844 1102.601562 "/>
<path fill-rule="nonzero" fill="rgb(0%, 0%, 0%)" fill-opacity="1" d="M 2283.089844 1403.671875 L 2566.316406 1403.671875 L 2566.316406 1343.09375 L 2283.089844 1343.09375 Z M 2283.089844 1403.671875 "/>
<path fill-rule="nonzero" fill="rgb(0%, 0%, 0%)" fill-opacity="1" d="M 2283.089844 1403.671875 L 2566.308594 1403.671875 L 2566.308594 1343.089844 L 2283.089844 1343.089844 L 2283.089844 1403.671875 M 2283.089844 1403.671875 L 2283.089844 1343.089844 L 2566.308594 1343.089844 L 2566.308594 1403.671875 Z M 2283.089844 1403.671875 "/>
<path fill-rule="nonzero" fill="rgb(0%, 0%, 0%)" fill-opacity="1" d="M 2283.089844 1886.5 L 2566.316406 1886.5 L 2566.316406 1825.914062 L 2283.089844 1825.914062 Z M 2283.089844 1886.5 "/>
<path fill-rule="nonzero" fill="rgb(0%, 0%, 0%)" fill-opacity="1" d="M 2283.089844 1886.5 L 2566.308594 1886.5 L 2566.308594 1825.910156 L 2283.089844 1825.910156 L 2283.089844 1886.5 M 2283.089844 1886.5 L 2283.089844 1825.910156 L 2566.308594 1825.910156 L 2566.308594 1886.5 Z M 2283.089844 1886.5 "/>
<path fill-rule="nonzero" fill="rgb(0%, 0%, 0%)" fill-opacity="1" d="M 448.292969 1403.671875 L 731.839844 1403.671875 L 731.839844 1343.09375 L 448.292969 1343.09375 Z M 448.292969 1403.671875 "/>
<path fill-rule="nonzero" fill="rgb(0%, 0%, 0%)" fill-opacity="1" d="M 448.292969 1403.671875 L 731.839844 1403.671875 L 731.839844 1343.089844 L 448.292969 1343.089844 L 448.292969 1403.671875 M 448.292969 1403.671875 L 448.292969 1343.089844 L 731.839844 1343.089844 L 731.839844 1403.671875 Z M 448.292969 1403.671875 "/>
<path fill-rule="nonzero" fill="rgb(0%, 0%, 0%)" fill-opacity="1" d="M 448.292969 1644.171875 L 731.839844 1644.171875 L 731.839844 1585.425781 L 448.292969 1585.425781 Z M 448.292969 1644.171875 "/>
<path fill-rule="nonzero" fill="rgb(0%, 0%, 0%)" fill-opacity="1" d="M 448.292969 1644.171875 L 731.839844 1644.171875 L 731.839844 1585.421875 L 448.292969 1585.421875 L 448.292969 1644.171875 M 448.292969 1644.171875 L 448.292969 1585.421875 L 731.839844 1585.421875 L 731.839844 1644.171875 Z M 448.292969 1644.171875 "/>
<path fill-rule="nonzero" fill="rgb(0%, 0%, 0%)" fill-opacity="1" d="M 448.292969 1886.5 L 731.839844 1886.5 L 731.839844 1825.914062 L 448.292969 1825.914062 Z M 448.292969 1886.5 "/>
<path fill-rule="nonzero" fill="rgb(0%, 0%, 0%)" fill-opacity="1" d="M 448.292969 1886.5 L 731.839844 1886.5 L 731.839844 1825.910156 L 448.292969 1825.910156 L 448.292969 1886.5 M 448.292969 1886.5 L 448.292969 1825.910156 L 731.839844 1825.910156 L 731.839844 1886.5 Z M 448.292969 1886.5 "/>
<path fill-rule="nonzero" fill="rgb(0%, 0%, 0%)" fill-opacity="1" d="M 701.398438 659.851562 L 2313.210938 659.851562 C 2329.328125 659.851562 2341.738281 672.261719 2341.738281 688.378906 L 2341.738281 2300.179688 C 2341.738281 2316.3125 2329.328125 2328.722656 2313.210938 2328.722656 L 701.398438 2328.722656 C 685.273438 2328.722656 672.863281 2316.3125 672.863281 2300.179688 L 672.863281 688.378906 C 672.863281 672.261719 685.273438 659.851562 701.398438 659.851562 Z M 2284.660156 718.171875 L 731.179688 718.171875 L 731.179688 2271.640625 L 2284.660156 2271.640625 Z M 2284.660156 718.171875 "/>
<path fill-rule="nonzero" fill="rgb(0%, 0%, 0%)" fill-opacity="1" d="M 701.398438 659.851562 L 2313.210938 659.851562 C 2329.328125 659.851562 2341.738281 672.261719 2341.738281 688.378906 L 2341.738281 2300.179688 C 2341.738281 2316.3125 2329.328125 2328.722656 2313.210938 2328.722656 L 701.398438 2328.722656 C 685.273438 2328.722656 672.863281 2316.3125 672.863281 2300.179688 L 672.863281 688.378906 C 672.863281 672.261719 685.273438 659.851562 701.398438 659.851562 M 701.398438 659.851562 C 685.273438 659.851562 672.863281 672.261719 672.863281 688.378906 L 672.863281 2300.179688 C 672.863281 2316.3125 685.273438 2328.722656 701.398438 2328.722656 L 2313.210938 2328.722656 C 2329.328125 2328.722656 2341.738281 2316.3125 2341.738281 2300.179688 L 2341.738281 688.378906 C 2341.738281 672.261719 2329.328125 659.851562 2313.210938 659.851562 Z M 2284.660156 718.171875 L 731.179688 718.171875 L 731.179688 2271.640625 L 2284.660156 2271.640625 L 2284.660156 718.171875 M 2284.660156 718.171875 L 2284.660156 2271.640625 L 731.179688 2271.640625 L 731.179688 718.171875 Z M 2284.660156 718.171875 "/>
<path fill-rule="nonzero" fill="rgb(0%, 0%, 0%)" fill-opacity="1" d="M 883.792969 842.230469 L 1726.308594 842.230469 L 1726.308594 1157.398438 C 1713.890625 1162.371094 1702.730469 1169.808594 1692.789062 1178.511719 C 1676.660156 1194.628906 1666.738281 1216.96875 1666.738281 1240.539062 C 1666.738281 1264.121094 1676.660156 1286.441406 1692.789062 1302.570312 C 1708.929688 1318.710938 1731.269531 1328.640625 1754.839844 1328.640625 C 1779.660156 1328.640625 1802 1318.710938 1818.121094 1302.570312 C 1834.261719 1286.441406 1844.171875 1264.121094 1844.171875 1240.539062 C 1844.171875 1216.96875 1834.261719 1194.628906 1818.121094 1178.511719 C 1808.191406 1169.808594 1797.03125 1162.371094 1784.621094 1157.398438 L 1784.621094 842.230469 L 2130.808594 842.230469 C 2146.929688 842.230469 2159.339844 854.660156 2159.339844 870.78125 L 2159.339844 1348.5 L 2005.480469 1348.5 C 1996.789062 1348.5 1989.359375 1352.210938 1984.390625 1357.171875 L 1871.46875 1470.089844 L 1754.839844 1470.089844 C 1749.878906 1458.910156 1743.679688 1447.761719 1733.75 1439.058594 C 1718.859375 1422.941406 1696.519531 1414.261719 1671.699219 1414.261719 C 1648.128906 1414.261719 1625.789062 1422.941406 1609.671875 1439.058594 C 1593.53125 1455.199219 1583.621094 1477.519531 1583.621094 1501.109375 C 1583.621094 1525.910156 1593.53125 1547.019531 1609.671875 1563.160156 C 1625.789062 1579.28125 1648.128906 1589.210938 1671.699219 1589.210938 C 1696.519531 1589.210938 1718.859375 1579.28125 1733.75 1563.160156 C 1743.679688 1553.230469 1751.121094 1542.050781 1756.089844 1528.410156 L 1883.878906 1528.410156 C 1891.328125 1528.410156 1898.769531 1525.910156 1904.980469 1519.710938 L 2017.890625 1406.808594 L 2159.339844 1406.808594 L 2159.339844 1668.621094 L 1959.570312 1668.621094 C 1952.128906 1668.621094 1944.679688 1672.339844 1939.71875 1678.550781 L 1862.789062 1754.230469 C 1850.378906 1749.269531 1836.738281 1745.539062 1823.078125 1745.539062 C 1798.261719 1745.539062 1777.179688 1755.46875 1761.050781 1770.359375 C 1744.910156 1786.488281 1734.980469 1808.828125 1734.980469 1832.398438 C 1734.980469 1857.210938 1744.910156 1879.558594 1761.050781 1894.441406 C 1777.179688 1910.578125 1798.261719 1920.5 1823.078125 1920.5 C 1846.671875 1920.5 1868.988281 1910.578125 1885.128906 1894.441406 C 1901.25 1879.558594 1911.179688 1857.210938 1911.179688 1832.398438 C 1911.179688 1820 1908.699219 1807.589844 1902.488281 1796.421875 L 1971.980469 1726.941406 L 2159.339844 1726.941406 L 2159.339844 2117.789062 C 2159.339844 2133.914062 2146.929688 2146.324219 2130.808594 2146.324219 L 1325.53125 2146.324219 L 1325.53125 1860.929688 C 1337.941406 1855.96875 1349.101562 1848.53125 1359.03125 1839.851562 C 1375.148438 1823.71875 1385.078125 1802.621094 1385.078125 1777.808594 C 1385.078125 1754.230469 1375.148438 1731.898438 1359.03125 1715.769531 C 1342.898438 1699.628906 1320.570312 1690.949219 1296.980469 1690.949219 C 1272.160156 1690.949219 1249.839844 1699.628906 1233.710938 1715.769531 C 1217.570312 1731.898438 1207.640625 1754.230469 1207.640625 1777.808594 C 1207.640625 1802.621094 1217.570312 1823.71875 1233.710938 1839.851562 C 1243.640625 1848.53125 1254.800781 1855.96875 1267.191406 1860.929688 L 1267.191406 2146.324219 L 1110.871094 2146.324219 L 1110.871094 1728.179688 C 1123.28125 1724.449219 1134.441406 1717 1144.359375 1708.320312 C 1160.488281 1692.191406 1170.421875 1669.859375 1170.421875 1646.28125 C 1170.421875 1621.460938 1160.488281 1600.371094 1144.359375 1584.25 C 1128.230469 1568.101562 1105.898438 1558.179688 1082.320312 1558.179688 C 1057.519531 1558.179688 1035.179688 1568.101562 1019.058594 1584.25 C 1002.929688 1600.371094 992.984375 1621.460938 992.984375 1646.28125 C 992.984375 1669.859375 1002.929688 1692.191406 1019.058594 1708.320312 C 1028.980469 1717 1040.140625 1724.449219 1052.550781 1728.179688 L 1052.550781 2146.324219 L 883.796875 2146.324219 C 867.671875 2146.324219 855.261719 2133.914062 855.261719 2117.789062 L 855.261719 1404.328125 L 1122.03125 1404.328125 L 1190.269531 1473.808594 C 1185.308594 1484.960938 1182.828125 1497.390625 1182.828125 1511.039062 C 1182.828125 1534.609375 1192.75 1556.941406 1208.890625 1573.089844 C 1223.769531 1589.210938 1246.128906 1597.890625 1270.929688 1597.890625 C 1294.519531 1597.890625 1316.839844 1589.210938 1332.980469 1573.089844 C 1349.101562 1556.941406 1359.03125 1534.609375 1359.03125 1511.039062 C 1359.03125 1486.210938 1349.101562 1465.128906 1332.980469 1449 C 1316.839844 1432.859375 1294.519531 1422.941406 1270.929688 1422.941406 C 1257.289062 1422.941406 1243.640625 1426.671875 1231.21875 1432.859375 L 1154.289062 1354.691406 C 1149.328125 1349.730469 1141.878906 1346.019531 1133.210938 1346.019531 L 855.261719 1346.011719 L 855.261719 1162.359375 L 1275.890625 1162.359375 L 1383.851562 1270.320312 C 1377.628906 1281.480469 1375.148438 1293.890625 1375.148438 1307.550781 C 1375.148438 1331.121094 1385.078125 1353.460938 1401.199219 1369.578125 C 1417.339844 1384.480469 1439.679688 1394.398438 1463.25 1394.398438 C 1488.070312 1394.398438 1509.160156 1384.480469 1525.300781 1369.578125 C 1541.429688 1353.460938 1551.351562 1331.121094 1551.351562 1307.550781 C 1551.351562 1282.730469 1541.429688 1261.640625 1525.300781 1245.5 C 1509.160156 1229.378906 1488.070312 1219.449219 1463.25 1219.449219 C 1449.589844 1219.449219 1435.949219 1223.160156 1424.789062 1229.378906 L 1308.160156 1112.75 C 1303.191406 1107.761719 1295.75 1104.050781 1287.070312 1104.050781 L 855.261719 1104.050781 L 855.261719 870.78125 C 855.261719 854.660156 867.671875 842.230469 883.792969 842.230469 Z M 1103.421875 1625.191406 C 1098.460938 1620.230469 1091.011719 1616.488281 1082.320312 1616.488281 C 1073.640625 1616.488281 1064.960938 1620.230469 1060 1625.191406 C 1055.03125 1630.148438 1051.320312 1637.601562 1051.320312 1646.28125 C 1051.320312 1653.71875 1055.03125 1661.171875 1060 1667.371094 C 1064.960938 1672.339844 1073.640625 1676.058594 1082.320312 1676.058594 C 1091.011719 1676.058594 1098.460938 1672.339844 1103.421875 1667.371094 C 1109.628906 1661.171875 1112.101562 1653.71875 1112.101562 1646.28125 C 1112.101562 1637.601562 1109.628906 1630.148438 1103.421875 1625.191406 Z M 1318.089844 1756.710938 C 1313.101562 1751.75 1304.429688 1748.03125 1296.980469 1748.03125 C 1288.300781 1748.03125 1279.621094 1751.75 1274.640625 1756.710938 C 1269.691406 1762.910156 1265.960938 1769.121094 1265.960938 1777.808594 C 1265.960938 1786.488281 1269.691406 1793.941406 1274.640625 1798.898438 C 1279.621094 1803.871094 1288.300781 1807.589844 1296.980469 1807.589844 C 1304.429688 1807.589844 1313.101562 1803.871094 1318.089844 1798.898438 C 1323.03125 1793.941406 1326.761719 1786.488281 1326.761719 1777.808594 C 1326.761719 1769.121094 1323.03125 1762.910156 1318.089844 1756.710938 Z M 1485.589844 1286.441406 C 1479.390625 1281.480469 1471.949219 1277.769531 1463.25 1277.769531 C 1454.570312 1277.769531 1447.128906 1281.480469 1442.160156 1286.441406 C 1435.949219 1291.410156 1433.46875 1298.859375 1433.46875 1307.550781 C 1433.46875 1314.980469 1435.949219 1322.441406 1442.160156 1328.640625 C 1447.128906 1333.609375 1454.570312 1337.320312 1463.25 1337.320312 C 1471.949219 1337.320312 1479.390625 1333.609375 1485.589844 1328.640625 C 1490.558594 1322.441406 1494.269531 1314.980469 1494.269531 1307.550781 C 1494.269531 1298.859375 1490.558594 1291.410156 1485.589844 1286.441406 Z M 1292.03125 1489.929688 C 1287.070312 1484.960938 1279.621094 1481.25 1270.929688 1481.25 C 1262.25 1481.25 1254.800781 1484.960938 1248.589844 1489.929688 C 1243.640625 1494.910156 1239.910156 1502.339844 1239.910156 1511.039062 C 1239.910156 1518.480469 1243.640625 1525.910156 1248.589844 1532.121094 C 1254.800781 1537.089844 1262.25 1540.820312 1270.929688 1540.820312 C 1279.621094 1540.820312 1287.070312 1537.089844 1292.03125 1532.121094 C 1298.230469 1525.910156 1300.710938 1518.480469 1300.710938 1511.039062 C 1300.710938 1502.339844 1298.230469 1494.910156 1292.03125 1489.929688 Z M 1844.171875 1811.308594 C 1839.21875 1806.339844 1830.53125 1803.871094 1823.078125 1803.871094 C 1814.398438 1803.871094 1806.960938 1806.339844 1800.75 1812.539062 C 1795.78125 1817.519531 1792.070312 1824.960938 1792.070312 1832.398438 C 1792.070312 1841.089844 1795.78125 1848.53125 1800.75 1853.5 C 1806.960938 1859.691406 1814.398438 1862.179688 1823.078125 1862.179688 C 1831.761719 1862.179688 1839.21875 1859.691406 1844.171875 1853.5 C 1850.378906 1848.53125 1852.871094 1841.089844 1852.871094 1832.398438 C 1852.871094 1824.960938 1850.378906 1818.761719 1846.671875 1813.78125 L 1845.421875 1812.539062 C 1845.421875 1812.539062 1844.171875 1812.539062 1844.171875 1811.308594 Z M 1694.039062 1480.019531 C 1687.839844 1475.058594 1680.398438 1471.328125 1671.699219 1471.328125 C 1663.019531 1471.328125 1655.578125 1475.058594 1650.609375 1480.019531 C 1644.398438 1486.210938 1641.921875 1493.660156 1641.921875 1501.109375 C 1641.921875 1509.789062 1644.398438 1517.230469 1650.609375 1522.191406 C 1655.578125 1527.160156 1663.019531 1530.890625 1671.699219 1530.890625 C 1680.398438 1530.890625 1687.839844 1527.160156 1694.039062 1522.191406 C 1699 1517.230469 1702.730469 1509.789062 1702.730469 1501.109375 L 1702.730469 1499.859375 C 1702.730469 1492.410156 1699 1484.960938 1694.039062 1480.019531 Z M 1777.179688 1219.449219 C 1770.960938 1214.488281 1763.519531 1210.75 1754.839844 1210.75 C 1746.160156 1210.75 1738.71875 1214.488281 1733.75 1219.449219 C 1727.539062 1224.421875 1725.058594 1231.859375 1725.058594 1240.539062 C 1725.058594 1249.230469 1727.539062 1256.660156 1733.75 1261.640625 C 1738.71875 1266.589844 1746.160156 1270.320312 1754.839844 1270.320312 C 1763.519531 1270.320312 1770.960938 1266.589844 1777.179688 1261.640625 C 1782.140625 1256.660156 1785.851562 1249.230469 1785.851562 1240.539062 C 1785.851562 1231.859375 1782.140625 1224.421875 1777.179688 1219.449219 Z M 1777.179688 1219.449219 "/>
<path fill-rule="nonzero" fill="rgb(0%, 0%, 0%)" fill-opacity="1" d="M 883.792969 842.230469 L 1726.308594 842.230469 L 1726.308594 1157.398438 C 1713.890625 1162.371094 1702.730469 1169.808594 1692.789062 1178.511719 C 1676.660156 1194.628906 1666.738281 1216.96875 1666.738281 1240.539062 C 1666.738281 1264.121094 1676.660156 1286.441406 1692.789062 1302.570312 C 1708.929688 1318.710938 1731.269531 1328.640625 1754.839844 1328.640625 C 1779.660156 1328.640625 1802 1318.710938 1818.121094 1302.570312 C 1834.261719 1286.449219 1844.171875 1264.121094 1844.171875 1240.539062 C 1844.171875 1216.96875 1834.261719 1194.628906 1818.121094 1178.511719 C 1808.191406 1169.808594 1797.03125 1162.359375 1784.621094 1157.398438 L 1784.621094 842.230469 L 2130.808594 842.230469 C 2146.929688 842.230469 2159.339844 854.660156 2159.339844 870.78125 L 2159.339844 1348.5 L 2005.480469 1348.5 C 1996.789062 1348.5 1989.359375 1352.210938 1984.390625 1357.171875 L 1871.46875 1470.089844 L 1754.839844 1470.089844 C 1749.871094 1458.910156 1743.679688 1447.761719 1733.75 1439.058594 C 1718.859375 1422.941406 1696.519531 1414.261719 1671.699219 1414.261719 C 1648.128906 1414.261719 1625.789062 1422.941406 1609.671875 1439.058594 C 1593.53125 1455.199219 1583.621094 1477.519531 1583.621094 1501.109375 C 1583.621094 1525.910156 1593.53125 1547.019531 1609.671875 1563.160156 C 1625.789062 1579.28125 1648.128906 1589.210938 1671.699219 1589.210938 C 1696.519531 1589.210938 1718.859375 1579.28125 1733.75 1563.160156 C 1743.679688 1553.230469 1751.121094 1542.050781 1756.089844 1528.410156 L 1883.878906 1528.410156 C 1891.328125 1528.410156 1898.769531 1525.910156 1904.980469 1519.710938 L 2017.890625 1406.808594 L 2159.339844 1406.808594 L 2159.339844 1668.621094 L 1959.570312 1668.621094 C 1952.128906 1668.621094 1944.679688 1672.339844 1939.71875 1678.550781 L 1862.789062 1754.230469 C 1850.390625 1749.269531 1836.738281 1745.539062 1823.078125 1745.539062 C 1798.261719 1745.539062 1777.179688 1755.46875 1761.050781 1770.359375 C 1744.910156 1786.488281 1734.980469 1808.820312 1734.980469 1832.398438 C 1734.980469 1857.210938 1744.910156 1879.550781 1761.050781 1894.441406 C 1777.179688 1910.578125 1798.261719 1920.5 1823.078125 1920.5 C 1846.671875 1920.5 1868.988281 1910.578125 1885.128906 1894.441406 C 1901.261719 1879.550781 1911.179688 1857.210938 1911.179688 1832.398438 C 1911.179688 1820 1908.699219 1807.589844 1902.488281 1796.421875 L 1971.980469 1726.941406 L 2159.339844 1726.941406 L 2159.339844 2117.789062 C 2159.339844 2133.914062 2146.929688 2146.324219 2130.808594 2146.324219 L 1325.53125 2146.324219 L 1325.53125 1860.929688 C 1337.941406 1855.96875 1349.101562 1848.53125 1359.03125 1839.851562 C 1375.148438 1823.710938 1385.078125 1802.621094 1385.078125 1777.808594 C 1385.078125 1754.230469 1375.148438 1731.898438 1359.03125 1715.769531 C 1342.898438 1699.628906 1320.570312 1690.949219 1296.980469 1690.949219 C 1272.160156 1690.949219 1249.839844 1699.628906 1233.710938 1715.769531 C 1217.570312 1731.898438 1207.640625 1754.230469 1207.640625 1777.808594 C 1207.640625 1802.621094 1217.570312 1823.71875 1233.710938 1839.851562 C 1243.640625 1848.53125 1254.800781 1855.96875 1267.191406 1860.929688 L 1267.191406 2146.324219 L 1110.871094 2146.324219 L 1110.871094 1728.179688 C 1123.28125 1724.449219 1134.441406 1717 1144.359375 1708.320312 C 1160.488281 1692.191406 1170.421875 1669.859375 1170.421875 1646.28125 C 1170.421875 1621.460938 1160.488281 1600.371094 1144.359375 1584.25 C 1128.21875 1568.101562 1105.910156 1558.179688 1082.320312 1558.179688 C 1057.511719 1558.179688 1035.179688 1568.101562 1019.058594 1584.25 C 1002.929688 1600.371094 992.984375 1621.460938 992.984375 1646.28125 C 992.984375 1669.859375 1002.929688 1692.191406 1019.058594 1708.320312 C 1028.980469 1717.011719 1040.140625 1724.449219 1052.550781 1728.179688 L 1052.550781 2146.324219 L 883.796875 2146.324219 C 867.671875 2146.324219 855.261719 2133.914062 855.261719 2117.789062 L 855.261719 1404.328125 L 1122.03125 1404.328125 L 1190.269531 1473.808594 C 1185.308594 1484.96875 1182.828125 1497.390625 1182.828125 1511.039062 C 1182.828125 1534.609375 1192.75 1556.941406 1208.890625 1573.089844 C 1223.769531 1589.210938 1246.128906 1597.890625 1270.929688 1597.890625 C 1294.519531 1597.890625 1316.839844 1589.210938 1332.980469 1573.089844 C 1349.101562 1556.941406 1359.03125 1534.609375 1359.03125 1511.039062 C 1359.03125 1486.210938 1349.101562 1465.128906 1332.980469 1449 C 1316.839844 1432.859375 1294.519531 1422.941406 1270.929688 1422.941406 C 1257.289062 1422.941406 1243.640625 1426.671875 1231.21875 1432.859375 L 1154.289062 1354.691406 C 1149.328125 1349.730469 1141.890625 1346.019531 1133.210938 1346.019531 L 855.261719 1346.011719 L 855.261719 1162.359375 L 1275.890625 1162.359375 L 1383.851562 1270.320312 C 1377.628906 1281.480469 1375.148438 1293.890625 1375.148438 1307.550781 C 1375.148438 1331.121094 1385.078125 1353.460938 1401.199219 1369.578125 C 1417.339844 1384.480469 1439.679688 1394.398438 1463.25 1394.398438 C 1488.070312 1394.398438 1509.160156 1384.480469 1525.300781 1369.578125 C 1541.429688 1353.460938 1551.351562 1331.121094 1551.351562 1307.550781 C 1551.351562 1282.730469 1541.429688 1261.640625 1525.300781 1245.5 C 1509.160156 1229.378906 1488.070312 1219.449219 1463.25 1219.449219 C 1449.589844 1219.449219 1435.949219 1223.160156 1424.789062 1229.378906 L 1308.160156 1112.75 C 1303.191406 1107.769531 1295.75 1104.050781 1287.070312 1104.050781 L 855.261719 1104.050781 L 855.261719 870.78125 C 855.261719 854.660156 867.671875 842.230469 883.792969 842.230469 M 883.792969 842.230469 C 867.671875 842.230469 855.261719 854.660156 855.261719 870.78125 L 855.261719 1104.050781 L 1287.070312 1104.050781 C 1295.75 1104.050781 1303.191406 1107.769531 1308.160156 1112.75 L 1424.789062 1229.378906 C 1435.949219 1223.160156 1449.589844 1219.449219 1463.25 1219.449219 C 1488.070312 1219.449219 1509.160156 1229.378906 1525.300781 1245.5 C 1541.429688 1261.640625 1551.351562 1282.730469 1551.351562 1307.550781 C 1551.351562 1331.121094 1541.429688 1353.460938 1525.300781 1369.578125 C 1509.160156 1384.480469 1488.070312 1394.398438 1463.25 1394.398438 C 1439.679688 1394.398438 1417.339844 1384.480469 1401.199219 1369.578125 C 1385.078125 1353.460938 1375.148438 1331.121094 1375.148438 1307.550781 C 1375.148438 1293.890625 1377.628906 1281.480469 1383.851562 1270.320312 L 1275.890625 1162.359375 L 855.261719 1162.359375 L 855.261719 1346.011719 L 1133.210938 1346.019531 C 1141.890625 1346.019531 1149.328125 1349.730469 1154.289062 1354.691406 L 1231.21875 1432.859375 C 1243.640625 1426.671875 1257.289062 1422.941406 1270.929688 1422.941406 C 1294.519531 1422.941406 1316.839844 1432.859375 1332.980469 1449 C 1349.101562 1465.128906 1359.03125 1486.210938 1359.03125 1511.039062 C 1359.03125 1534.609375 1349.101562 1556.941406 1332.980469 1573.089844 C 1316.839844 1589.210938 1294.519531 1597.890625 1270.929688 1597.890625 C 1246.128906 1597.890625 1223.769531 1589.210938 1208.890625 1573.089844 C 1192.75 1556.941406 1182.828125 1534.609375 1182.828125 1511.039062 C 1182.828125 1497.390625 1185.308594 1484.96875 1190.269531 1473.808594 L 1122.03125 1404.328125 L 855.261719 1404.328125 L 855.261719 2117.789062 C 855.261719 2133.914062 867.671875 2146.324219 883.796875 2146.324219 L 1052.550781 2146.324219 L 1052.550781 1728.179688 C 1040.140625 1724.449219 1028.980469 1717.011719 1019.058594 1708.320312 C 1002.929688 1692.191406 992.984375 1669.859375 992.984375 1646.28125 C 992.984375 1621.460938 1002.929688 1600.371094 1019.058594 1584.25 C 1035.179688 1568.101562 1057.511719 1558.179688 1082.320312 1558.179688 C 1105.910156 1558.179688 1128.21875 1568.101562 1144.359375 1584.25 C 1160.488281 1600.371094 1170.421875 1621.460938 1170.421875 1646.28125 C 1170.421875 1669.859375 1160.488281 1692.191406 1144.359375 1708.320312 C 1134.441406 1717 1123.28125 1724.449219 1110.871094 1728.179688 L 1110.871094 2146.324219 L 1267.191406 2146.324219 L 1267.191406 1860.929688 C 1254.800781 1855.96875 1243.640625 1848.53125 1233.710938 1839.851562 C 1217.570312 1823.71875 1207.640625 1802.621094 1207.640625 1777.808594 C 1207.640625 1754.230469 1217.570312 1731.898438 1233.710938 1715.769531 C 1249.839844 1699.628906 1272.160156 1690.949219 1296.980469 1690.949219 C 1320.570312 1690.949219 1342.898438 1699.628906 1359.03125 1715.769531 C 1375.148438 1731.898438 1385.078125 1754.230469 1385.078125 1777.808594 C 1385.078125 1802.621094 1375.148438 1823.710938 1359.03125 1839.851562 C 1349.101562 1848.53125 1337.941406 1855.96875 1325.53125 1860.929688 L 1325.53125 2146.324219 L 2130.808594 2146.324219 C 2146.929688 2146.324219 2159.339844 2133.914062 2159.339844 2117.789062 L 2159.339844 1726.941406 L 1971.980469 1726.941406 L 1902.488281 1796.421875 C 1908.699219 1807.589844 1911.179688 1820 1911.179688 1832.398438 C 1911.179688 1857.210938 1901.261719 1879.550781 1885.128906 1894.441406 C 1868.988281 1910.578125 1846.671875 1920.5 1823.078125 1920.5 C 1798.261719 1920.5 1777.179688 1910.578125 1761.050781 1894.441406 C 1744.910156 1879.550781 1734.980469 1857.210938 1734.980469 1832.398438 C 1734.980469 1808.820312 1744.910156 1786.488281 1761.050781 1770.359375 C 1777.179688 1755.46875 1798.261719 1745.539062 1823.078125 1745.539062 C 1836.738281 1745.539062 1850.390625 1749.269531 1862.789062 1754.230469 L 1939.71875 1678.550781 C 1944.679688 1672.339844 1952.128906 1668.621094 1959.570312 1668.621094 L 2159.339844 1668.621094 L 2159.339844 1406.808594 L 2017.890625 1406.808594 L 1904.980469 1519.710938 C 1898.769531 1525.910156 1891.328125 1528.410156 1883.878906 1528.410156 L 1756.089844 1528.410156 C 1751.121094 1542.050781 1743.679688 1553.230469 1733.75 1563.160156 C 1718.859375 1579.28125 1696.519531 1589.210938 1671.699219 1589.210938 C 1648.128906 1589.210938 1625.789062 1579.28125 1609.671875 1563.160156 C 1593.53125 1547.019531 1583.621094 1525.910156 1583.621094 1501.109375 C 1583.621094 1477.519531 1593.53125 1455.199219 1609.671875 1439.058594 C 1625.789062 1422.941406 1648.128906 1414.261719 1671.699219 1414.261719 C 1696.519531 1414.261719 1718.859375 1422.941406 1733.75 1439.058594 C 1743.679688 1447.761719 1749.871094 1458.910156 1754.839844 1470.089844 L 1871.46875 1470.089844 L 1984.390625 1357.171875 C 1989.359375 1352.210938 1996.789062 1348.5 2005.480469 1348.5 L 2159.339844 1348.5 L 2159.339844 870.78125 C 2159.339844 854.660156 2146.929688 842.230469 2130.808594 842.230469 L 1784.621094 842.230469 L 1784.621094 1157.398438 C 1797.03125 1162.359375 1808.191406 1169.808594 1818.121094 1178.511719 C 1834.261719 1194.628906 1844.171875 1216.96875 1844.171875 1240.539062 C 1844.171875 1264.121094 1834.261719 1286.449219 1818.121094 1302.570312 C 1802 1318.710938 1779.660156 1328.640625 1754.839844 1328.640625 C 1731.269531 1328.640625 1708.929688 1318.710938 1692.789062 1302.570312 C 1676.660156 1286.441406 1666.738281 1264.121094 1666.738281 1240.539062 C 1666.738281 1216.96875 1676.660156 1194.628906 1692.789062 1178.511719 C 1702.730469 1169.808594 1713.890625 1162.371094 1726.308594 1157.398438 L 1726.308594 842.230469 Z M 1103.421875 1625.191406 C 1098.460938 1620.230469 1091.011719 1616.488281 1082.320312 1616.488281 C 1073.640625 1616.488281 1064.960938 1620.230469 1060 1625.191406 C 1055.03125 1630.148438 1051.320312 1637.601562 1051.320312 1646.28125 C 1051.320312 1653.71875 1055.03125 1661.171875 1060 1667.371094 C 1064.960938 1672.339844 1073.640625 1676.058594 1082.320312 1676.058594 C 1091.011719 1676.058594 1098.460938 1672.339844 1103.421875 1667.371094 C 1109.640625 1661.171875 1112.101562 1653.71875 1112.101562 1646.28125 C 1112.101562 1637.601562 1109.640625 1630.160156 1103.421875 1625.191406 M 1103.421875 1625.191406 C 1109.640625 1630.160156 1112.101562 1637.601562 1112.101562 1646.28125 C 1112.101562 1653.71875 1109.640625 1661.171875 1103.421875 1667.371094 C 1098.460938 1672.339844 1091.011719 1676.058594 1082.320312 1676.058594 C 1073.640625 1676.058594 1064.960938 1672.339844 1060 1667.371094 C 1055.03125 1661.171875 1051.320312 1653.71875 1051.320312 1646.28125 C 1051.320312 1637.601562 1055.03125 1630.148438 1060 1625.191406 C 1064.960938 1620.230469 1073.640625 1616.488281 1082.320312 1616.488281 C 1091.011719 1616.488281 1098.460938 1620.230469 1103.421875 1625.191406 Z M 1318.089844 1756.710938 C 1313.101562 1751.75 1304.429688 1748.03125 1296.980469 1748.03125 C 1288.300781 1748.03125 1279.621094 1751.75 1274.640625 1756.710938 C 1269.691406 1762.910156 1265.960938 1769.121094 1265.960938 1777.808594 C 1265.960938 1786.488281 1269.691406 1793.941406 1274.640625 1798.898438 C 1279.621094 1803.871094 1288.300781 1807.589844 1296.980469 1807.589844 C 1304.421875 1807.589844 1313.109375 1803.859375 1318.089844 1798.898438 C 1323.03125 1793.941406 1326.761719 1786.488281 1326.761719 1777.808594 C 1326.761719 1769.121094 1323.03125 1762.910156 1318.089844 1756.710938 M 1318.089844 1756.710938 C 1323.03125 1762.910156 1326.761719 1769.121094 1326.761719 1777.808594 C 1326.761719 1786.488281 1323.03125 1793.941406 1318.089844 1798.898438 C 1313.109375 1803.859375 1304.421875 1807.589844 1296.980469 1807.589844 C 1288.300781 1807.589844 1279.621094 1803.871094 1274.640625 1798.898438 C 1269.691406 1793.941406 1265.960938 1786.488281 1265.960938 1777.808594 C 1265.960938 1769.121094 1269.691406 1762.910156 1274.640625 1756.710938 C 1279.621094 1751.75 1288.300781 1748.03125 1296.980469 1748.03125 C 1304.429688 1748.03125 1313.101562 1751.75 1318.089844 1756.710938 Z M 1485.589844 1286.441406 C 1479.390625 1281.480469 1471.949219 1277.769531 1463.25 1277.769531 C 1454.570312 1277.769531 1447.128906 1281.480469 1442.160156 1286.441406 C 1435.949219 1291.410156 1433.46875 1298.859375 1433.46875 1307.550781 C 1433.46875 1314.980469 1435.949219 1322.441406 1442.160156 1328.640625 C 1447.128906 1333.609375 1454.570312 1337.320312 1463.25 1337.320312 C 1471.949219 1337.320312 1479.390625 1333.609375 1485.589844 1328.640625 C 1490.558594 1322.441406 1494.269531 1314.980469 1494.269531 1307.550781 C 1494.269531 1298.859375 1490.558594 1291.410156 1485.589844 1286.441406 M 1485.589844 1286.441406 C 1490.558594 1291.410156 1494.269531 1298.859375 1494.269531 1307.550781 C 1494.269531 1314.980469 1490.558594 1322.441406 1485.589844 1328.640625 C 1479.390625 1333.609375 1471.949219 1337.320312 1463.25 1337.320312 C 1454.570312 1337.320312 1447.128906 1333.609375 1442.160156 1328.640625 C 1435.949219 1322.441406 1433.46875 1314.980469 1433.46875 1307.550781 C 1433.46875 1298.859375 1435.949219 1291.410156 1442.160156 1286.441406 C 1447.128906 1281.480469 1454.570312 1277.769531 1463.25 1277.769531 C 1471.949219 1277.769531 1479.390625 1281.480469 1485.589844 1286.441406 Z M 1292.03125 1489.929688 C 1287.070312 1484.96875 1279.621094 1481.25 1270.929688 1481.25 C 1262.25 1481.25 1254.800781 1484.96875 1248.589844 1489.929688 C 1243.640625 1494.910156 1239.910156 1502.339844 1239.910156 1511.039062 C 1239.910156 1518.480469 1243.640625 1525.910156 1248.589844 1532.121094 C 1254.800781 1537.089844 1262.25 1540.820312 1270.929688 1540.820312 C 1279.621094 1540.820312 1287.070312 1537.089844 1292.03125 1532.121094 C 1298.230469 1525.910156 1300.710938 1518.480469 1300.710938 1511.039062 C 1300.710938 1502.339844 1298.230469 1494.910156 1292.03125 1489.929688 M 1292.03125 1489.929688 C 1298.230469 1494.910156 1300.710938 1502.339844 1300.710938 1511.039062 C 1300.710938 1518.480469 1298.230469 1525.910156 1292.03125 1532.121094 C 1287.070312 1537.089844 1279.621094 1540.820312 1270.929688 1540.820312 C 1262.25 1540.820312 1254.800781 1537.089844 1248.589844 1532.121094 C 1243.640625 1525.910156 1239.910156 1518.480469 1239.910156 1511.039062 C 1239.910156 1502.339844 1243.640625 1494.910156 1248.589844 1489.929688 C 1254.800781 1484.96875 1262.25 1481.25 1270.929688 1481.25 C 1279.621094 1481.25 1287.070312 1484.96875 1292.03125 1489.929688 Z M 1844.171875 1811.308594 C 1839.21875 1806.339844 1830.53125 1803.871094 1823.078125 1803.871094 C 1814.398438 1803.871094 1806.960938 1806.339844 1800.75 1812.539062 C 1795.78125 1817.519531 1792.070312 1824.960938 1792.070312 1832.398438 C 1792.070312 1841.089844 1795.78125 1848.53125 1800.75 1853.5 C 1806.960938 1859.691406 1814.398438 1862.179688 1823.078125 1862.179688 C 1831.761719 1862.179688 1839.21875 1859.691406 1844.171875 1853.5 C 1850.378906 1848.53125 1852.871094 1841.089844 1852.871094 1832.398438 C 1852.871094 1824.960938 1850.378906 1818.75 1846.671875 1813.78125 L 1845.421875 1812.539062 C 1845.421875 1812.539062 1844.171875 1812.539062 1844.171875 1811.308594 M 1844.171875 1811.308594 C 1844.171875 1812.539062 1845.421875 1812.539062 1845.421875 1812.539062 L 1846.671875 1813.78125 C 1850.378906 1818.75 1852.871094 1824.960938 1852.871094 1832.398438 C 1852.871094 1841.089844 1850.378906 1848.53125 1844.171875 1853.5 C 1839.21875 1859.691406 1831.761719 1862.179688 1823.078125 1862.179688 C 1814.398438 1862.179688 1806.960938 1859.691406 1800.75 1853.5 C 1795.78125 1848.53125 1792.070312 1841.089844 1792.070312 1832.398438 C 1792.070312 1824.960938 1795.78125 1817.519531 1800.75 1812.539062 C 1806.960938 1806.339844 1814.398438 1803.871094 1823.078125 1803.871094 C 1830.53125 1803.871094 1839.21875 1806.339844 1844.171875 1811.308594 Z M 1694.039062 1480.019531 C 1687.839844 1475.058594 1680.390625 1471.328125 1671.699219 1471.328125 C 1663.019531 1471.328125 1655.578125 1475.058594 1650.609375 1480.019531 C 1644.398438 1486.210938 1641.921875 1493.660156 1641.921875 1501.109375 C 1641.921875 1509.789062 1644.398438 1517.230469 1650.609375 1522.191406 C 1655.578125 1527.160156 1663.019531 1530.890625 1671.699219 1530.890625 C 1680.390625 1530.890625 1687.839844 1527.160156 1694.039062 1522.191406 C 1699 1517.230469 1702.730469 1509.789062 1702.730469 1501.109375 L 1702.730469 1499.859375 C 1702.730469 1492.410156 1699 1484.96875 1694.039062 1480.019531 M 1694.039062 1480.019531 C 1699 1484.96875 1702.730469 1492.410156 1702.730469 1499.859375 L 1702.730469 1501.109375 C 1702.730469 1509.789062 1699 1517.230469 1694.039062 1522.191406 C 1687.839844 1527.160156 1680.390625 1530.890625 1671.699219 1530.890625 C 1663.019531 1530.890625 1655.578125 1527.160156 1650.609375 1522.191406 C 1644.398438 1517.230469 1641.921875 1509.789062 1641.921875 1501.109375 C 1641.921875 1493.660156 1644.398438 1486.210938 1650.609375 1480.019531 C 1655.578125 1475.058594 1663.019531 1471.328125 1671.699219 1471.328125 C 1680.390625 1471.328125 1687.839844 1475.058594 1694.039062 1480.019531 Z M 1777.179688 1219.449219 C 1770.960938 1214.488281 1763.519531 1210.75 1754.839844 1210.75 C 1746.160156 1210.75 1738.71875 1214.488281 1733.75 1219.449219 C 1727.539062 1224.421875 1725.058594 1231.859375 1725.058594 1240.539062 C 1725.058594 1249.230469 1727.539062 1256.660156 1733.75 1261.640625 C 1738.71875 1266.589844 1746.160156 1270.320312 1754.839844 1270.320312 C 1763.519531 1270.320312 1770.960938 1266.589844 1777.179688 1261.640625 C 1782.140625 1256.660156 1785.851562 1249.230469 1785.851562 1240.539062 C 1785.851562 1231.859375 1782.140625 1224.421875 1777.179688 1219.449219 M 1777.179688 1219.449219 C 1782.140625 1224.421875 1785.851562 1231.859375 1785.851562 1240.539062 C 1785.851562 1249.230469 1782.140625 1256.660156 1777.179688 1261.640625 C 1770.960938 1266.589844 1763.519531 1270.320312 1754.839844 1270.320312 C 1746.160156 1270.320312 1738.71875 1266.589844 1733.75 1261.640625 C 1727.539062 1256.660156 1725.058594 1249.230469 1725.058594 1240.539062 C 1725.058594 1231.859375 1727.539062 1224.421875 1733.75 1219.449219 C 1738.71875 1214.488281 1746.160156 1210.75 1754.839844 1210.75 C 1763.519531 1210.75 1770.960938 1214.488281 1777.179688 1219.449219 Z M 1777.179688 1219.449219 "/>
</svg>
