<?xml version="1.0" encoding="utf-8"?>
<svg viewBox="386.79998779296875 235.70001220703125 83.29998779296875 70.49996948242188" width="83.29998779296875" height="70.49996948242188" xmlns="http://www.w3.org/2000/svg"><path class="st0" d="M393.3,283.6l0.4,0.9c-5.1-3.9-6.9-8.8-6.8-11.5c0.1-3.3,1.4-6.3,3.1-8.3c0.4,0.9,1.3,0.5,1.7-1.7&#10;&#9;&#9;&#9;&#9;c0,0,0,0,0.1-0.1c4.6-3.8,9.4-4.6,13.7-3.9c2.3,0.4,4.4,1.1,6.3,2.3c0,0-0.1,0.1-0.1,0.1c-0.2,0.2-0.3,0.5-0.3,0.9&#10;&#9;&#9;&#9;&#9;c-3.1-2.2-6.4-2.3-8.6-2.3c-5.1,0-8.1,2.3-9.9,4c-2,1.9-4.4,5.2-4.2,9.1c0.2,3.6,3.1,8.3,9,12.3&#10;&#9;&#9;&#9;&#9;C396,284.8,394.5,284.1,393.3,283.6z M407.8,273.6c0.1,0,0.1,0.1,0.2,0.1c2.2,0.8,5.1,0.2,6.7-1.4&#10;&#9;&#9;&#9;&#9;C411.5,271.8,409.2,272.8,407.8,273.6z M413.7,270.3c-2.6,1.7-6.1-1-3.1-1.5c-1.3-1.2-4-0.3-4.7,1c-0.4,0.8-0.2,2.2,0.9,3.2&#10;&#9;&#9;&#9;&#9;c0.7-0.4,1.4-0.7,2.1-0.9c2-0.6,4.1-0.9,6.3-0.5c0.1-0.1,0.2-0.2,0.3-0.4c0.8-1.5,0.9-3.1,0.4-4.7c-0.4,0-0.8-0.1-1.2-0.2&#10;&#9;&#9;&#9;&#9;C415.4,267.8,415.3,269.3,413.7,270.3z M391.7,262.9c0-0.2,0.1-0.5,0.1-0.8c0.4-4.3,3.7-7.4,6.2-9.2c2.3-1.6,6-3.6,11.8-2.8&#10;&#9;&#9;&#9;&#9;c2.7,0.4,6.8,1.2,10.1,4.7c2,2.2,4.3,6.6,0.4,8.3c-3.2,1.4-6.7-2-3.2-2.2c-1.2-1.5-4.3-1-5.3,0.3c0.8,0.5,1.6,1.2,2.3,2&#10;&#9;&#9;&#9;&#9;c0.9,1.1,1.6,2.2,1.9,3.3c2.4,0.3,4.9-0.4,6.3-2.1c2-2.6,1.8-5.7-0.3-8.9c-2.1-3.1-5.3-4.8-8.9-6c-4.8-1.5-10.3-1.3-16.1,2&#10;&#9;&#9;&#9;&#9;c-3,1.7-6.2,5.4-7.1,10.1c-0.3,1.3-0.2,2.3,0.1,2.9C390.6,264,391.2,263.4,391.7,262.9z M413.4,265.9c0.4,0.2,0.9,0.4,1.4,0.5&#10;&#9;&#9;&#9;&#9;c-0.5-1.4-1.7-2.7-2.7-3.5c-0.3-0.2-0.5-0.4-0.8-0.6C411.2,263.4,411.7,265,413.4,265.9z M391.7,262.9c-0.6,0.5-1.1,1-1.7,1.7&#10;&#9;&#9;&#9;&#9;C390.5,265.6,391.3,265.2,391.7,262.9z M411.8,261.3C411.8,261.3,411.7,261.3,411.8,261.3c-0.2,0.3-0.4,0.6-0.4,1&#10;&#9;&#9;&#9;&#9;c0.3,0.2,0.5,0.4,0.8,0.6c1,0.8,2.1,2.1,2.7,3.5c0.4,0.1,0.8,0.2,1.2,0.2c-0.3-1.1-1-2.3-1.9-3.3&#10;&#9;&#9;&#9;&#9;C413.4,262.5,412.6,261.8,411.8,261.3z M414.8,272.3c0.2,0,0.4,0,0.6,0.1c2.2,0.4,5.9,1.9,5,4.2c-0.7,1.9-4.4,1.4-2.8,0&#10;&#9;&#9;&#9;&#9;c-1.5-0.3-2.7,1.1-2.4,2.2c0.3,0.8,1.7,2,3.4,1.7c2.2-0.3,3.9-2.1,3.4-4c-0.5-2.1-2.5-3.7-5.3-4.5c-0.5-0.2-1-0.3-1.4-0.3&#10;&#9;&#9;&#9;&#9;C415.1,271.9,415,272.1,414.8,272.3z M402.5,279c-0.4,2,0.2,5.1,2.5,7.9c0.2,0.3,0.6,0.6,1,0.9c0.7,0.1,1.5,0.2,2.1,0.2&#10;&#9;&#9;&#9;&#9;c-0.8-0.5-1.4-1-1.9-1.6c-2.3-2.4-2.6-5.3-2.4-7.1c0.2-1.7,0.8-4.1,4-5.8c0,0,0,0,0,0c-0.4-0.1-0.7-0.3-0.9-0.6&#10;&#9;&#9;&#9;&#9;C404.7,274.2,403.1,276.1,402.5,279z M409,272.1c-0.7,0.2-1.5,0.5-2.1,0.9c0.3,0.2,0.6,0.4,0.9,0.6c1.4-0.8,3.7-1.7,7-1.3&#10;&#9;&#9;&#9;&#9;c0.2-0.2,0.4-0.4,0.5-0.6C413.1,271.2,411,271.5,409,272.1z M442.2,271.8c1.6,1.6,4.5,2.1,6.7,1.4c0.1,0,0.2-0.1,0.2-0.1&#10;&#9;&#9;&#9;&#9;C447.8,272.3,445.5,271.4,442.2,271.8z M448,271.7c0.7,0.2,1.5,0.5,2.1,0.9c1.1-0.9,1.4-2.4,1-3.2c-0.6-1.4-3.4-2.2-4.7-1&#10;&#9;&#9;&#9;&#9;c3,0.5-0.5,3.2-3.1,1.5c-1.6-1-1.7-2.5-1.2-4c-0.4,0.1-0.8,0.2-1.2,0.2c-0.5,1.6-0.4,3.2,0.4,4.7c0.1,0.1,0.2,0.3,0.3,0.4&#10;&#9;&#9;&#9;&#9;C443.9,270.8,446,271,448,271.7z M470,272.5c-0.1-3.3-1.4-6.3-3.1-8.3c-0.4,0.9-1.3,0.5-1.7-1.7c0,0,0,0-0.1-0.1&#10;&#9;&#9;&#9;&#9;c-4.6-3.8-9.4-4.6-13.7-3.9c-2.3,0.4-4.4,1.1-6.3,2.3c0,0,0.1,0.1,0.1,0.1c0.2,0.2,0.3,0.5,0.3,0.9c3.1-2.2,6.4-2.3,8.6-2.3&#10;&#9;&#9;&#9;&#9;c5.1,0,8.1,2.3,9.9,4c2,1.9,4.4,5.2,4.2,9.1c-0.2,3.8-3.4,8.8-9.9,12.9c1.8-0.7,3.5-1.4,4.7-2l-0.4,0.8&#10;&#9;&#9;&#9;&#9;C468.2,280.4,470.1,275.3,470,272.5z M445.2,260.8c-1-1.3-4.1-1.7-5.3-0.3c3.4,0.1,0,3.6-3.2,2.2c-3.9-1.7-1.6-6.1,0.4-8.3&#10;&#9;&#9;&#9;&#9;c3.3-3.5,7.4-4.3,10.1-4.7c5.8-0.8,9.5,1.2,11.8,2.8c2.6,1.8,5.8,4.9,6.2,9.2c0,0.3,0.1,0.6,0.1,0.8c0.6,0.5,1.1,1,1.7,1.7&#10;&#9;&#9;&#9;&#9;c0.3-0.5,0.4-1.5,0.1-2.9c-0.9-4.8-4.1-8.4-7.1-10.1c-5.8-3.3-11.3-3.5-16.1-2c-3.6,1.1-6.8,2.8-8.9,6c-2.1,3.1-2.3,6.3-0.3,8.9&#10;&#9;&#9;&#9;&#9;c1.3,1.7,3.9,2.4,6.3,2.1c0.3-1.1,1-2.3,1.9-3.3C443.6,262,444.4,261.4,445.2,260.8z M442.1,265.9c0.5-0.1,1-0.3,1.4-0.5&#10;&#9;&#9;&#9;&#9;c1.7-0.9,2.3-2.5,2-3.6c-0.3,0.2-0.5,0.4-0.8,0.6C443.8,263.2,442.7,264.6,442.1,265.9z M444.8,262.4c0.3-0.2,0.5-0.4,0.8-0.6&#10;&#9;&#9;&#9;&#9;c-0.1-0.3-0.2-0.6-0.3-0.9c0,0-0.1-0.1-0.1-0.1c-0.8,0.5-1.6,1.2-2.3,2c-0.9,1.1-1.6,2.2-1.9,3.3c0.4,0,0.8-0.1,1.2-0.2&#10;&#9;&#9;&#9;&#9;C442.7,264.6,443.8,263.2,444.8,262.4z M465.3,262.5c0.4,2.2,1.2,2.6,1.7,1.7C466.4,263.5,465.8,263,465.3,262.5z M452,286.5&#10;&#9;&#9;&#9;&#9;c2.3-2.8,2.9-5.9,2.5-7.9c-0.6-3-2.3-4.9-4.4-6c-0.3,0.2-0.6,0.4-0.9,0.6c0,0,0,0,0,0c3.2,1.7,3.9,4.1,4,5.8&#10;&#9;&#9;&#9;&#9;c0.2,1.9-0.1,4.7-2.4,7.1c-0.7,0.7-1.6,1.4-2.7,2c0.7,0,1.5-0.1,2.3-0.2C451.1,287.4,451.7,286.9,452,286.5z M441.7,271.2&#10;&#9;&#9;&#9;&#9;c-0.5,0.1-0.9,0.2-1.4,0.3c-2.8,0.9-4.8,2.5-5.3,4.6c-0.5,1.9,1.2,3.7,3.4,4c1.7,0.2,3.2-0.9,3.4-1.7c0.3-1.1-0.9-2.5-2.4-2.2&#10;&#9;&#9;&#9;&#9;c1.6,1.3-2.1,1.9-2.8,0c-0.9-2.3,2.8-3.8,5-4.2c0.2,0,0.4,0,0.6-0.1C442,271.6,441.9,271.4,441.7,271.2z M448,271.7&#10;&#9;&#9;&#9;&#9;c-2-0.6-4.1-0.9-6.3-0.5c0.2,0.2,0.3,0.4,0.5,0.6c3.3-0.4,5.5,0.5,7,1.3c0.4-0.1,0.7-0.3,0.9-0.6&#10;&#9;&#9;&#9;&#9;C449.5,272.2,448.8,271.9,448,271.7z M435.7,282.3c0.2,0.2,0.4,0.3,0.6,0.5C436.1,282.6,435.9,282.4,435.7,282.3z M431.7,293.4&#10;&#9;&#9;&#9;&#9;c1.7,1.6,3.4-0.4,3.3-0.6c0-0.1,0-0.5-0.3-0.5c-0.2,0-0.3,0.2-0.5,0.4c-0.1,0.2-0.5,0.3-0.8-0.2c-0.4-0.5,0.1-1.5,0.8-1.9&#10;&#9;&#9;&#9;&#9;c0.6-0.5,1.9-0.2,2.5,0.4c4.8-0.3,8.7-1.4,11.4-2.9c-0.4,0-0.8,0-1.1-0.1c-2.7-0.4-6.7-2.3-10.4-5c-1.4,0.4-2.7,1-3.9,2&#10;&#9;&#9;&#9;&#9;C429.3,287.3,429.6,291.8,431.7,293.4z M457.5,287.3c2-0.8,3.7-1.8,5.2-2.9l-10.3,21.8H404l-10.2-21.7c1.6,1.2,3.5,2.3,5.7,3.3&#10;&#9;&#9;&#9;&#9;c0.3-0.1,0.7-0.5,1-0.6c-1-0.6-1.9-1.1-2.8-1.7c2.6,1,5.7,2,8.2,2.4c2.3,1.7,7,3.2,12.3,4c-0.4,0.7-0.5,1.6-0.2,2.5&#10;&#9;&#9;&#9;&#9;c0.1,0.3,0.3,0.8,0.8,1.3c0.4,0.4,0.9,0.8,1.7,1.1c1.4,0.6,4,0.4,5.5-1.4c0.9-1,1.6-2.4,1.8-3.9c0.2,1.5,0.9,2.9,1.8,3.9&#10;&#9;&#9;&#9;&#9;c1.5,1.8,4,2,5.5,1.4c0.8-0.3,1.3-0.7,1.7-1.1c0.5-0.5,0.7-1,0.8-1.3c0.3-0.9,0.1-2-0.3-2.7c5.9-0.6,10.6-2.1,13.1-3.8&#10;&#9;&#9;&#9;&#9;c2.5-0.4,5.4-1.3,7.9-2.3c-0.6,0.4-1.2,0.8-1.9,1.1C456.8,286.8,457.2,287.2,457.5,287.3z M405.5,298.2c-0.2-0.4-1.1-1.4-1.3-2.4&#10;&#9;&#9;&#9;&#9;c-0.1,0.9-1.2,1.9-1.4,2.3c-0.6,1.3,1.2,2.1,1.3,2.7C404.2,300.2,406,299.6,405.5,298.2z M411.7,298.2c-0.2-0.4-1.1-1.4-1.3-2.4&#10;&#9;&#9;&#9;&#9;c-0.1,0.9-1.2,1.9-1.4,2.3c-0.6,1.3,1.2,2.1,1.3,2.7C410.4,300.2,412.3,299.6,411.7,298.2z M417.9,298.2&#10;&#9;&#9;&#9;&#9;c-0.2-0.4-1.1-1.4-1.3-2.4c-0.1,0.9-1.2,1.9-1.4,2.3c-0.6,1.3,1.2,2.1,1.3,2.7C416.7,300.2,418.5,299.6,417.9,298.2z&#10;&#9;&#9;&#9;&#9; M429.4,298.7c-0.2-0.5-1.3-1.6-1.5-2.8c-0.2,1-1.4,2.2-1.6,2.7c-0.8,1.5,1.4,2.4,1.5,3.1C427.9,301,430.1,300.3,429.4,298.7z&#10;&#9;&#9;&#9;&#9; M440.4,298.2c-0.2-0.4-1.1-1.4-1.3-2.4c-0.1,0.9-1.2,1.9-1.4,2.3c-0.6,1.3,1.2,2.1,1.3,2.7C439.1,300.2,440.9,299.6,440.4,298.2&#10;&#9;&#9;&#9;&#9;z M446.6,298.2c-0.2-0.4-1.1-1.4-1.3-2.4c-0.1,0.9-1.2,1.9-1.4,2.3c-0.6,1.3,1.2,2.1,1.3,2.7&#10;&#9;&#9;&#9;&#9;C445.3,300.2,447.2,299.6,446.6,298.2z M452.8,298.2c-0.2-0.4-1.1-1.4-1.3-2.4c-0.1,0.9-1.2,1.9-1.4,2.3&#10;&#9;&#9;&#9;&#9;c-0.6,1.3,1.2,2.1,1.3,2.7C451.6,300.2,453.4,299.6,452.8,298.2z M424,283.7c1.8,1.1,3.6,3.1,3.9,5.5c0,0,0,0,0,0.1&#10;&#9;&#9;&#9;&#9;c0,0,0,0,0-0.1c0.3-2.4,2.1-4.4,3.9-5.5c1.2-0.8,2.4-1.3,3.6-1.6c-2.9-2.3-5.5-5-6.8-7.5c-0.3,0.2-0.5,0.4-0.5,0.6&#10;&#9;&#9;&#9;&#9;c0-0.2-0.2-0.3-0.3-0.5c-1.5,2.8-4.5,5.8-7.7,8.2c0.3-0.2,0.6-0.4,0.8-0.6C421.9,282.5,423,283,424,283.7z M418.7,291.3&#10;&#9;&#9;&#9;&#9;c0.5-0.8,2.1-1.3,2.8-0.7c0.7,0.3,1.1,1.4,0.8,1.9c-0.3,0.5-0.7,0.4-0.8,0.2c-0.2-0.2-0.2-0.4-0.5-0.4c-0.2,0-0.3,0.4-0.3,0.5&#10;&#9;&#9;&#9;&#9;c-0.1,0.2,1.6,2.2,3.3,0.6c2.1-1.7,2.4-6.2-1-8.4c-1-0.9-2.2-1.5-3.4-1.9c-3.6,2.6-7.5,4.5-10.2,4.9c-0.4,0.1-0.9,0.1-1.3,0&#10;&#9;&#9;&#9;&#9;C410.5,289.6,414.1,290.9,418.7,291.3C418.6,291.3,418.6,291.3,418.7,291.3z M400.5,287.1c-1-0.6-1.9-1.1-2.8-1.7&#10;&#9;&#9;&#9;&#9;c-1.7-0.6-3.2-1.3-4.4-1.9l0.4,0.9c1.6,1.2,3.5,2.3,5.7,3.3C399.8,287.7,400.2,287.2,400.5,287.1z M418.3,291.9&#10;&#9;&#9;&#9;&#9;c0.1-0.2,0.2-0.4,0.4-0.5c-4.5-0.4-8.2-1.7-10.6-3.3c-0.6,0-1.4-0.1-2.1-0.2C408.2,289.5,413,291,418.3,291.9z M458.4,285.6&#10;&#9;&#9;&#9;&#9;c-0.6,0.4-1.2,0.8-1.9,1.1c0.3,0.1,0.7,0.5,1,0.6c2-0.8,3.7-1.8,5.2-2.9l0.4-0.8C461.9,284.1,460.2,284.9,458.4,285.6z&#10;&#9;&#9;&#9;&#9; M437.1,291.3c0.1,0.1,0.2,0.2,0.3,0.3c5.9-0.6,10.6-2.1,13.1-3.8c-0.8,0.1-1.6,0.2-2.3,0.2c-2.7,1.5-6.6,2.7-11.4,2.9&#10;&#9;&#9;&#9;&#9;C436.9,291.1,437,291.2,437.1,291.3z M420.2,251.2c0.4-0.6,1.2-0.7,1.7-0.2c0.2,0.3,0.4,0.6,0.4,0.9c0,0.3,0,0.7,0,1&#10;&#9;&#9;&#9;&#9;c0,1.3,0.1,2.7,1,3.8c0.9,1.2,2,2,3,3c1,1,1.5,2.1,1.8,3.4c0.1-0.2,0.2-0.5,0.3-0.7c0,0.3,0.2,0.6,0.3,0.8&#10;&#9;&#9;&#9;&#9;c0.2-1.4,0.8-2.5,1.8-3.5c1-1,2.1-1.8,3-3c0.9-1.1,1-2.5,1-3.8c0-0.3,0-0.7,0-1c0-0.3,0.1-0.7,0.4-0.9c0.4-0.5,1.3-0.4,1.7,0.2&#10;&#9;&#9;&#9;&#9;c0.1,0.1,0.3-0.1,0.4-0.3c0.1-0.4,0-0.8-0.2-1.2c-0.4-0.6-1.1-1-1.8-0.8c-1.1,0.2-1.6,1-2,1.6c0.1-0.4,0.4-1.3-1-3&#10;&#9;&#9;&#9;&#9;c-0.3-0.4-0.7-0.8-1.1-1.3c-0.6-0.7-1.1-2.1-0.5-3.2c0.3-0.4,0.9-0.9,1.4-0.5c-0.6,0.4-0.7,1.3-0.1,1.7c0.4,0.3,0.8,0.3,1.2,0&#10;&#9;&#9;&#9;&#9;c0.2-0.2,0.3-0.5,0.4-0.8c0.1-0.6-0.3-1.2-0.9-1.5c-1.4-0.8-2.5,0.2-2.8,0.6c-0.9,1.3-0.8,2.8-0.4,4.2c0.1,0.2,0.1,0.5,0.2,0.7&#10;&#9;&#9;&#9;&#9;c0.6,2.2,1.2,3.7,1.3,5.5c0.1,1.3-0.1,2.6-0.8,4.4c-0.4,1.1-0.8,1.9-1.2,3c0,0.1-0.1,0.2-0.2,0.3c-0.1,0-0.2-0.2-0.2-0.3&#10;&#9;&#9;&#9;&#9;c-0.3-1.1-0.7-2-1.2-3c-0.7-1.8-0.9-3.1-0.8-4.4c0.1-1.7,0.7-3.3,1.3-5.5c0.1-0.2,0.1-0.5,0.2-0.7c0.4-1.4,0.5-2.9-0.4-4.2&#10;&#9;&#9;&#9;&#9;c-0.3-0.4-1.4-1.4-2.8-0.6c-0.5,0.3-0.9,0.9-0.9,1.5c0,0.3,0.1,0.6,0.4,0.8c0.4,0.3,0.8,0.3,1.2,0c0.6-0.4,0.6-1.3-0.1-1.7&#10;&#9;&#9;&#9;&#9;c0.5-0.4,1.2,0.1,1.4,0.5c0.7,1.1,0.1,2.4-0.5,3.2c-0.4,0.4-0.8,0.8-1.1,1.3c-1.4,1.7-1,2.6-1,3c-0.4-0.6-0.9-1.4-2-1.6&#10;&#9;&#9;&#9;&#9;c-0.7-0.1-1.4,0.2-1.8,0.8c-0.2,0.4-0.3,0.8-0.2,1.2C419.9,251.2,420.1,251.4,420.2,251.2z M428.6,274.5c0.7-0.5,1.6-1.2,1.1-2.4&#10;&#9;&#9;&#9;&#9;c-0.2-0.5-1.3-1.6-1.5-2.8c-0.2,1-1.4,2.2-1.6,2.7c-0.6,1.2,0.6,2,1.2,2.6c0.2-0.3,0.3-0.6,0.4-0.9&#10;&#9;&#9;&#9;&#9;C428.3,274,428.5,274.2,428.6,274.5z M428.6,274.5c-0.1-0.3-0.3-0.5-0.4-0.8c-0.1,0.3-0.3,0.6-0.4,0.9c0.2,0.2,0.3,0.3,0.3,0.5&#10;&#9;&#9;&#9;&#9;C428.1,274.9,428.4,274.7,428.6,274.5z M428.3,263.9c-0.2,0-0.2-0.1-0.2-0.4c0-0.1,0-0.2-0.1-0.3c-0.4,0.8-1.2,1.6-1.4,2&#10;&#9;&#9;&#9;&#9;c-0.8,1.5,1.4,2.4,1.5,3.1c0.1-0.7,2.3-1.4,1.7-3c-0.2-0.4-0.8-1.1-1.2-2c0,0.1,0,0.1,0,0.2C428.4,263.8,428.4,263.9,428.3,263.9&#10;&#9;&#9;&#9;&#9;z M428,263.1c0,0.1,0,0.2,0.1,0.3c0,0.3,0.1,0.4,0.2,0.4c0.2,0,0.2-0.1,0.2-0.4c0-0.1,0-0.1,0-0.2c-0.1-0.3-0.2-0.5-0.3-0.8&#10;&#9;&#9;&#9;&#9;C428.2,262.7,428.1,262.9,428,263.1z M428.4,241.5c0.1-0.7,2.3-1.4,1.7-3c-0.2-0.5-1.3-1.6-1.5-2.8c-0.2,1-1.4,2.2-1.6,2.7&#10;&#9;&#9;&#9;&#9;C426.1,240,428.3,240.8,428.4,241.5z" style="fill: rgb(204, 204, 204); opacity: 1;" transform="matrix(1, 0, 0, 1, 0, 0)"/></svg>