<svg xmlns="http://www.w3.org/2000/svg" viewBox="390 480 1220 780">
  <defs>
    <clipPath id="a">
      <path d="M751 822h414v372H751Zm0 0"/>
    </clipPath>
    <clipPath id="b">
      <path d="M1092 944.16a496 496 0 0 0-24 46 256 256 0 0 0-38-10 257 257 0 0 0-54-4 587.1 587.1 0 0 1-110 136 587.2 587.2 0 0 1-114.316 81.781c41.652-11.332 100.836-33.03 161.597-76.57 35.93-25.742 63.649-52.84 84.375-76.422 6.403.352 12.922.852 19.555 1.531 49.789 5.079 93.309 18.77 129.777 35.07-3.957-19.128-8.508-34.628-12.168-45.788-9.332-28.492-16.379-39.551-12.351-53.84 3.781-13.461 15.16-21.883 22.953-26.48 7.476-14.59 20.547-44.962 19.406-84.922-.219-7.68-.848-24.168-6.476-43.63-4.903 24.02-13.75 46.07-26.352 63.27-6.43 8.79-21.8 27.168-40 58"/>
    </clipPath>
    <clipPath id="d">
      <path d="M745 562h525v292H745Zm0 0"/>
    </clipPath>
    <clipPath id="e">
      <path d="M1148.95 617.36c-133.981-99.829-301.938-35.57-325.696-26.481-31.848 12.18-57.668 27.23-77.293 40.742 113.465-66.902 227.426-83.27 306.039-39.46 75.031 41.82 100 116 100 116 7.14 21.21 10.691 44.448 10.86 67.57 14.32 23.34 20.69 44.558 23.16 53.738 3.101-1.758 26.699-14.598 52.949-3.98 19.07 7.722 27.98 23.14 30.46 27.812-1.35-21.98-11.558-154.781-120.48-235.942"/>
    </clipPath>
    <linearGradient id="c" gradientUnits="userSpaceOnUse" x1=".457" y1="0" x2="1.071" y2="0" gradientTransform="matrix(-756 478 -478 -756 1565.49 689.21)">
      <stop offset="0" stop-color="#423e3f"/>
      <stop offset=".5" stop-color="#312d2e"/>
      <stop offset="1" stop-color="#231f20"/>
    </linearGradient>
    <linearGradient id="f" gradientUnits="userSpaceOnUse" x1=".177" y1="0" x2=".872" y2="0" gradientTransform="matrix(-756 478 -478 -756 1430.16 475.18)">
      <stop offset="0" stop-color="#787676"/>
      <stop offset=".078" stop-color="#4f4c4d"/>
      <stop offset=".5" stop-color="#3e3b3c"/>
      <stop offset="1" stop-color="#2a2728"/>
    </linearGradient>
  </defs>
  <g clip-path="url(#a)" transform="translate(300)">
    <g clip-path="url(#b)">
      <path fill="url(#c)" d="m1333.574 1087.969-285.922-452.211-463.57 293.101 285.922 452.215Zm0 0"/>
    </g>
  </g>
  <path fill="#2e2a2b" d="M1303.781 711.191c-55.527-2.25-105.922 22.489-135.96 54.84-21.376 23.008-38.09 53.457-47.384 76.797-10.253 25.75-14.136 34.05-26.078 58.961-10.648 22.223-25.617 49.2-46.879 78.54a72 72 0 0 0 17.957 2.882c5.442.18 30.399.96 41.926-13.68 4.168-5.293 1.684-6.383 6.61-26.152 2.605-10.469 6.832-26.469 16.34-43.129a115.3 115.3 0 0 1 12.164-17.379c-3.758-.242-7.52-.48-11.282-.723 46.633-6.77 93.266-13.527 139.899-20.296-6.75 10.539-18.657 25.988-37.953 38.84-36.38 24.23-74.254 22.75-87.383 21.617a3733778 3733778 0 0 1-94.883 271.851c.266-.07.54-.14.809-.219a587.2 587.2 0 0 0 114.316-81.78 587.1 587.1 0 0 0 110-136c14.969-.47 33.371.25 54 4a256 256 0 0 1 38 10 496 496 0 0 1 24-46c18.2-30.833 33.57-49.212 40-58 12.602-17.2 21.45-39.25 26.352-63.27-2.723-9.422-6.614-19.532-12.204-29.672-28.789-52.207-88.52-79.84-142.367-82.028"/>
  <g clip-path="url(#d)" transform="translate(300)">
    <g clip-path="url(#e)">
      <path fill="url(#f)" d="M1421.098 757.406 1119.93 281.082 594.297 613.426l301.168 476.324Zm0 0"/>
    </g>
  </g>
  <path fill="#2e2a2b" d="M1352 592.16c-78.613-43.808-192.574-27.441-306.04 39.461a377 377 0 0 0-15.386 11.168c12.293-3.187 30.063-5.66 50.313-1.328 5.117 1.098 50.578 11.61 72.152 54.008 6.672 13.11 9.008 25.23 9.934 33.101 21.953-13.941 70.863-40.52 136.367-39.441 23.289.383 64.672 1.59 106.582 28.191 26.527 16.852 44.656 38.399 56.937 58.41-.168-23.12-3.718-46.359-10.859-67.57 0 0-24.969-74.18-100-116"/>
  <g clip-path="url(#a)" transform="matrix(-1 0 0 1 1700 0)">
    <g clip-path="url(#b)">
      <path fill="url(#c)" d="m1333.574 1087.969-285.922-452.211-463.57 293.101 285.922 452.215Zm0 0"/>
    </g>
  </g>
  <path fill="#2e2a2b" d="M696.219 711.191c55.527-2.25 105.922 22.489 135.96 54.84 21.376 23.008 38.09 53.457 47.384 76.797 10.253 25.75 14.136 34.05 26.078 58.961 10.648 22.223 25.617 49.2 46.879 78.54a72 72 0 0 1-17.957 2.882c-5.442.18-30.399.96-41.926-13.68-4.168-5.293-1.684-6.383-6.61-26.152-2.605-10.469-6.832-26.469-16.34-43.129a115.3 115.3 0 0 0-12.164-17.379c3.758-.242 7.52-.48 11.282-.723-46.633-6.77-93.266-13.527-139.899-20.296 6.75 10.539 18.657 25.988 37.953 38.84 36.38 24.23 74.254 22.75 87.383 21.617a3733778 3733778 0 0 0 94.883 271.851c-.266-.07-.54-.14-.809-.219A587.2 587.2 0 0 1 834 1112.161a587.1 587.1 0 0 1-110-136c-14.969-.47-33.371.25-54 4a256 256 0 0 0-38 10 496 496 0 0 0-24-46c-18.2-30.833-33.57-49.212-40-58-12.602-17.2-21.45-39.25-26.352-63.27 2.723-9.422 6.614-19.532 12.204-29.672 28.789-52.207 88.52-79.84 142.367-82.028"/>
  <g clip-path="url(#d)" transform="matrix(-1 0 0 1 1700 0)">
    <g clip-path="url(#e)">
      <path fill="url(#f)" d="M1421.098 757.406 1119.93 281.082 594.297 613.426l301.168 476.324Zm0 0"/>
    </g>
  </g>
  <path fill="#2e2a2b" d="M648 592.16c78.613-43.808 192.574-27.441 306.04 39.461a377 377 0 0 1 15.386 11.168c-12.293-3.187-30.063-5.66-50.313-1.328-5.117 1.098-50.578 11.61-72.152 54.008-6.672 13.11-9.008 25.23-9.934 33.101-21.953-13.941-70.863-40.52-136.367-39.441-23.289.383-64.672 1.59-106.582 28.191-26.527 16.852-44.656 38.399-56.937 58.41.168-23.12 3.718-46.359 10.859-67.57 0 0 24.969-74.18 100-116"/>
</svg>
